<?xml version="1.0" encoding="UTF-8" standalone="no"?>
<!-- Created with Inkscape (http://www.inkscape.org/) -->

<svg
   width="1920px"
   height="1080px"
   viewBox="0 0 210 297"
   version="1.1"
   id="svg1"
   inkscape:version="1.3 (0e150ed6c4, 2023-07-21)"
   sodipodi:docname="gruvbox02.svg"
   xmlns:inkscape="http://www.inkscape.org/namespaces/inkscape"
   xmlns:sodipodi="http://sodipodi.sourceforge.net/DTD/sodipodi-0.dtd"
   xmlns="http://www.w3.org/2000/svg"
   xmlns:svg="http://www.w3.org/2000/svg">
  <sodipodi:namedview
     id="namedview1"
     pagecolor="#ffffff"
     bordercolor="#999999"
     borderopacity="1"
     inkscape:showpageshadow="2"
     inkscape:pageopacity="0"
     inkscape:pagecheckerboard="0"
     inkscape:deskcolor="#d1d1d1"
     inkscape:document-units="mm"
     inkscape:zoom="0.4421875"
     inkscape:cx="960"
     inkscape:cy="540.4947"
     inkscape:window-width="1366"
     inkscape:window-height="745"
     inkscape:window-x="-8"
     inkscape:window-y="-8"
     inkscape:window-maximized="1"
     inkscape:current-layer="layer1" />
  <defs
     id="defs1" />
  <g
     inkscape:label="Layer 1"
     inkscape:groupmode="layer"
     id="layer1">
    <rect
       style="fill:#fe8019;stroke:none;stroke-width:1.55905;stroke-linecap:round;stroke-linejoin:round;stroke-miterlimit:1;fill-opacity:1"
       id="rect1"
       width="528"
       height="297"
       x="-159"
       y="0"
       ry="0.49966291" />
    <path
       style="fill:#cc241d;fill-opacity:1;stroke:none;stroke-width:1.55905;stroke-linecap:round;stroke-linejoin:round;stroke-miterlimit:1"
       d="m -249.60035,29.09709 c 147.75784,28.144348 120.70728,10.780067 203.177746,20.15552 28.427466,3.231707 36.088979,30.933784 124.890549,19.349242 C 213.49754,50.986668 189.09599,86.511627 289.0126,114.64894 c 35.21976,9.91817 107.36267,-27.850932 120.35128,-44.520819 21.54545,-27.651952 -32.30929,-80.190522 -67.04267,-128.175842 0,0 -36.93946,56.2886992 -67.72233,7.9156 -30.78289,-48.373102 -331.575615,9.674619 -331.575615,9.674619 0,0 163.589025,-5.277066 0,0 C -220.56576,-35.180437 -249.60035,29.09709 -249.60035,29.09709 Z"
       id="path1"
       sodipodi:nodetypes="csssscscsc" />
    <circle
       style="fill:#ebdbb2;fill-opacity:1;stroke:none;stroke-width:1.55905;stroke-linecap:round;stroke-linejoin:round;stroke-miterlimit:1"
       id="path4"
       cx="96.122795"
       cy="161.06088"
       r="150.67809" />
  </g>
  <g
     inkscape:groupmode="layer"
     id="layer2"
     inkscape:label="Layer 2">
    <path
       style="fill:#b8bb26;fill-opacity:1;stroke:none;stroke-width:1.55905;stroke-linecap:round;stroke-linejoin:round;stroke-miterlimit:1"
       d="m -219.68625,205.80555 c 116.48368,-68.14892 211.7638443,-93.76305 344.76826,-51.01163 36.93426,11.87172 68.69291,36.54232 107.30035,45.73457 42.79303,10.18882 96.93638,0.59427 135.44468,21.98777 27.01784,15.00992 43.11164,78.80649 27.26482,104.6618 -52.30887,85.34609 -560.50871,25.35695 -605.10349,-37.81896 -16.94642,-24.00744 -7.11581,-63.08303 -10.55413,-90.58963"
       id="path2" />
    <path
       style="fill:#98971a;fill-opacity:1;stroke:none;stroke-width:1.55905;stroke-linecap:round;stroke-linejoin:round;stroke-miterlimit:1"
       d="m -182.1,242 c 131.41546,-89.33065 273.406092,-48.64696 403.7,16.5 54.40121,27.20061 147.75541,-21.64458 194.7,25.3 25.89848,25.89848 12.9905,78.61329 -5.5,104.5 -55.09199,77.12878 -253.8198,33.98893 -324.5,20.9 -54.467369,-10.08656 -273.6822,-22.4576 -284.9,-112.2 -2.23808,-17.90467 12.45889,-38.83555 16.5,-55 z"
       id="path3" />
  </g>
</svg>
